<?xml version="1.0" encoding="UTF-8"?>
<svg xmlns="http://www.w3.org/2000/svg" width="100%" height="100%">
    
    <style type="text/css">
        rect {fill:navy}
        rect[height='100'] {fill:rgb(50%,25%,10%); fill-opacity:0.9;}
    </style>
    
    <rect x="0" y="60" width="230" height="5" />
    <rect x="0" y="135" width="230" height="5" />

    <rect x="10" y="50" width="10" height="100"/>
    <rect x="30" y="50" width="10" height="100" />
    <rect x="50" y="50" width="10" height="100" />
    <rect x="70" y="50" width="10" height="100" />
    <rect x="90" y="50" width="10" height="100" />
    <rect x="110" y="50" width="10" height="100" />
    <rect x="130" y="50" width="10" height="100" />
    <rect x="150" y="50" width="10" height="100" />
    <rect x="170" y="50" width="10" height="100" />
    <rect x="190" y="50" width="10" height="100" />
    <rect x="210" y="50" width="10" height="100" />
    
    <text x="10" y="40" font-size="8" color="black">223.229</text>
    <text x="10" y="160" font-size="8" color="black">Jupiter</text>
    
    <circle r="50" cx="100" cy="400" fill="rgb(100%, 90%, 0%)" stroke="black" stroke-width="1"/>
    <ellipse rx="100" ry="50" cx="200" cy="400" stroke="red" stroke-width="2" fill="rgb(0%,50%,50%)" fill-opacity="0.5" stroke-dasharray="10 10"/>
    <rect x="225" y="395" width="75" height="10" stroke="white" stroke-width="4" />
    <rect x="162.5" y="362.5" width="75" height="75" rx="10" ry="10" stroke="white" stroke-width="4" />
    
</svg>